# xmcd
#
# Track frame offsets: 
#        150
#        12755
#        24530
#        36910
#        51065
#        63835
#        75822
#        89642
#        108480
#        117050
#        125232
#
# Disc length: 1851 seconds
#
# Revision: 3
# Processed by: cddbd v1.5.2PL0 Copyright (c) Steve Scherf et al.
# Submitted via: ExactAudioCopy v0.99pb4
#
DISCID=8407390b
DTITLE=Jonhnny Cash - Johnny Cash's Greatest Hits, Volume 1
DYEAR=1900
DGENRE=Country
TTITLE0=Jackson
TTITLE1=I Walk The Line
TTITLE2=Understand Your Man
TTITLE3=Orange Blossom Special
TTITLE4=The One On The Right Is On The Left
TTITLE5=Ring Of Fire
TTITLE6=It Ain't Me Babe
TTITLE7=The Ballad Of Ira Hayes
TTITLE8=The Rebel - Johnny Yuma
TTITLE9=Five Feet High And Rising
TTITLE10=Don't Take Your Guns To Town
EXTD=
EXTT0=With June Carter
EXTT1=
EXTT2=
EXTT3=
EXTT4=
EXTT5=
EXTT6=
EXTT7=
EXTT8=
EXTT9=
EXTT10=
PLAYORDER=
